<svg width="257" height="291" viewBox="0 0 257 291" fill="none" xmlns="http://www.w3.org/2000/svg">
<path d="M104.677 115.274C95.1719 142.169 90.641 170.471 91.6805 198.977L141.646 203.13" stroke="#F40934" stroke-width="6" stroke-linecap="round" stroke-linejoin="round"/>
<path d="M9.06774 164.881C16.8328 184.832 25.4036 205.867 42.6354 218.571C49.5915 223.701 59.5045 227.101 66.627 222.21C70.9908 219.212 73.1166 213.727 73.3356 208.438C73.5545 203.149 72.1452 197.939 70.7485 192.829C67.4791 180.896 64.2096 168.96 60.9399 157.022" stroke="#F40934" stroke-width="6" stroke-linecap="round" stroke-linejoin="round"/>
<path d="M18.6361 185.369L62.0768 170.907" stroke="#F40934" stroke-width="6" stroke-linecap="round" stroke-linejoin="round"/>
<path d="M61.417 225.943L84.2267 270.742" stroke="#F40934" stroke-width="6" stroke-linecap="round" stroke-linejoin="round"/>
<path d="M50.3775 287.816L103.472 261.313" stroke="#F40934" stroke-width="6" stroke-linecap="round" stroke-linejoin="round"/>
<path d="M149.616 218.066C159.981 220.036 171.301 215.78 177.76 207.425C184.218 199.071 185.53 187.051 181.008 177.513" stroke="#F40934" stroke-width="6" stroke-linecap="round" stroke-linejoin="round"/>
<path d="M42.8952 127.868C106.512 116.371 168.589 97.5686 227.893 71.8351C218.283 51.1158 207.257 29.9043 188.685 16.6099C170.112 3.31556 141.86 0.787872 125.721 16.9322C112.014 30.6274 111.136 52.6046 114.685 71.655C80.6892 84.896 62.6714 100.307 42.9115 127.867" stroke="#F40934" stroke-width="6" stroke-linecap="round" stroke-linejoin="round"/>
<path d="M203.776 104.649C209.246 109.188 215.034 113.643 221.83 115.641C228.626 117.639 236.773 116.649 241.608 111.451C246.903 105.761 246.79 96.593 243.431 89.5888C240.072 82.5846 234.103 77.2286 228.288 72.0742" stroke="#F40934" stroke-width="6" stroke-linecap="round" stroke-linejoin="round"/>
<path d="M231.069 107.628C234.048 118.022 236.691 130.319 229.912 138.745C225.033 144.812 216.586 146.801 208.798 146.658C195.941 146.374 183.623 141.434 174.131 132.756" stroke="#F40934" stroke-width="6" stroke-linecap="round" stroke-linejoin="round"/>
<path d="M134.045 126.834L134.717 137.943" stroke="#F40934" stroke-width="6" stroke-linecap="round" stroke-linejoin="round"/>
<path d="M218.229 170.875L217.204 206.162" stroke="#F40934" stroke-width="6" stroke-linecap="round" stroke-linejoin="round"/>
</svg>
