<svg width="269" height="268" viewBox="0 0 269 268" fill="none" xmlns="http://www.w3.org/2000/svg">
<path d="M240.239 91.4617C247.624 119.499 246.113 149.138 235.915 176.28L185.707 172.72" stroke="#7100FF" stroke-width="6" stroke-linecap="round" stroke-linejoin="round"/>
<path d="M210.732 97.2021L206.823 111.794" stroke="#7100FF" stroke-width="6" stroke-linecap="round" stroke-linejoin="round"/>
<path d="M164.853 85.1092C159.52 77.7738 153.999 70.2551 146.292 65.4532C138.584 60.6512 128.106 59.1727 120.601 64.2698C112.883 69.5067 110.525 79.8762 110.721 89.2014C111.28 115.689 128.698 141.078 153.216 151.123" stroke="#7100FF" stroke-width="6" stroke-linecap="round" stroke-linejoin="round"/>
<path d="M140.73 87.9275C136.031 94.5395 135.643 103.941 139.78 110.92" stroke="#7100FF" stroke-width="6" stroke-linecap="round" stroke-linejoin="round"/>
<path d="M166.708 175.696C165.364 177.198 163.984 178.769 163.417 180.703C162.851 182.637 163.365 185.045 165.114 186.041C167.851 187.6 171.008 184.935 173.022 182.514C175.036 180.092 177.131 176.446 175.078 174.016C173.699 172.384 171.05 172.419 169.214 173.507C167.379 174.595 166.165 176.459 165.017 178.258" stroke="#7100FF" stroke-width="6" stroke-linecap="round" stroke-linejoin="round"/>
<path d="M193.344 47.6932C175.476 28.4225 146.164 20.6746 121.106 28.6003C113.402 31.0377 105.947 34.9647 100.732 41.1388C95.5178 47.313 92.856 55.9814 95.1884 63.7267C76.5497 66.3795 60.6944 82.5747 58.4406 101.267C56.1869 119.959 67.7327 139.461 85.2088 146.469C67.6497 147.601 49.3179 148.961 34.2645 158.085C19.2111 167.208 8.89733 186.707 16.0227 202.8C21.2524 214.612 34.4082 221.349 47.2785 222.464C60.1488 223.578 72.9243 220.041 85.2989 216.34" stroke="#7100FF" stroke-width="6" stroke-linecap="round" stroke-linejoin="round"/>
<path d="M87.2939 15.6895L71.5684 9.49292" stroke="#7100FF" stroke-width="6" stroke-linecap="round" stroke-linejoin="round"/>
<path d="M73.0514 43.7237L55.0195 38.8921" stroke="#7100FF" stroke-width="6" stroke-linecap="round" stroke-linejoin="round"/>
<path d="M53.8387 72.1488L38.5127 68.0422" stroke="#7100FF" stroke-width="6" stroke-linecap="round" stroke-linejoin="round"/>
<path d="M130.118 167.245C131.285 177.905 135.593 187.978 142.496 196.185" stroke="#7100FF" stroke-width="6" stroke-linecap="round" stroke-linejoin="round"/>
</svg>
