<svg width="420" height="381" viewBox="0 0 420 381" fill="none" xmlns="http://www.w3.org/2000/svg">
<path d="M240.559 191.124C240.559 191.124 202.096 194.019 206.761 218.025C210.213 235.826 238.574 237.699 259.934 228.787" stroke="#00B998" stroke-width="6" stroke-linecap="round" stroke-linejoin="round"/>
<path d="M180.886 106.465C208.441 110.979 234.863 120.432 258.819 134.749L238.847 179.576" stroke="#00B998" stroke-width="6" stroke-linecap="round" stroke-linejoin="round"/>
<path d="M220.804 59.3837C180.965 108.546 135.586 152.947 85.5661 191.705C72.3199 173.694 59.3141 154.241 56.6592 132.044C54.0044 109.847 65.1359 84.4095 86.6087 78.1608C104.817 72.853 124.087 82.4541 138.759 94.4745C166.142 71.5397 187.847 63.349 220.796 59.3791" stroke="#00B998" stroke-width="6" stroke-linecap="round" stroke-linejoin="round"/>
<path d="M125.078 186.481C126.384 193.304 127.496 200.367 126.003 207.151C124.51 213.935 119.819 220.44 113.093 222.146C105.716 224.006 97.9101 219.595 93.4735 213.404C89.037 207.212 87.2636 199.583 85.582 192.16" stroke="#00B998" stroke-width="6" stroke-linecap="round" stroke-linejoin="round"/>
<path d="M114.78 211.3C122.29 218.754 131.597 226.817 142.017 224.969C149.509 223.631 155.209 217.331 158.745 210.578C164.559 199.412 166.124 186.516 163.151 174.283" stroke="#00B998" stroke-width="6" stroke-linecap="round" stroke-linejoin="round"/>
<path d="M112.87 233.477L92.3453 261.279" stroke="#00B998" stroke-width="6" stroke-linecap="round" stroke-linejoin="round"/>
<path d="M173.467 155.533C176.048 154.672 178.398 153.231 180.336 151.321C182.274 149.411 183.749 147.082 184.648 144.514" stroke="#00B998" stroke-width="6" stroke-linecap="round" stroke-linejoin="round"/>
<path d="M284.674 203.714L232.961 216.169L290.53 141.097L304.864 156.73" stroke="#00B998" stroke-width="6" stroke-linecap="round" stroke-linejoin="round"/>
<path d="M368.851 261.937C379.027 242.429 385.714 219.884 380.871 198.429C376.029 176.975 359.55 163.928 334.923 158.586C326.522 156.763 289.135 153.084 289.504 164.202C289.752 171.68 321.116 177.756 326.502 178.882C331.889 180.008 338.57 181.308 344.773 182.66C330.711 179.677 292.634 169.985 286.457 179.993C281.267 194.113 324.489 196.957 337.724 200.012C325.691 198.973 285.928 189.456 284.206 201.785C281.903 213.569 319.493 218.861 334.004 218.726" stroke="#00B998" stroke-width="6" stroke-linecap="round" stroke-linejoin="round"/>
</svg>
