<svg width="20" height="20" viewBox="0 0 20 20" fill="none" xmlns="http://www.w3.org/2000/svg">
<g clip-path="url(#clip0_226_976)">
<path d="M11.769 0.75494L15.0007 3.98744C15.1569 4.14371 15.2447 4.35564 15.2447 4.57661C15.2447 4.79758 15.1569 5.0095 15.0007 5.16577C14.8444 5.322 14.6325 5.40976 14.4115 5.40976C14.1905 5.40976 13.9786 5.322 13.8223 5.16577L10.8582 2.20327L10.8582 19.1916C10.8582 19.4126 10.7704 19.6246 10.6141 19.7809C10.4578 19.9371 10.2459 20.0249 10.0248 20.0249C9.80383 20.0249 9.59187 19.9371 9.43559 19.7809C9.27931 19.6246 9.19152 19.4126 9.19152 19.1916L9.19151 2.15244L6.17902 5.16577C6.10162 5.24325 6.00971 5.30472 5.90855 5.34666C5.80738 5.38859 5.69894 5.41018 5.58943 5.41018C5.47992 5.41018 5.37148 5.38859 5.27031 5.34666C5.16915 5.30472 5.07724 5.24325 4.99985 5.16577C4.84362 5.0095 4.75586 4.79758 4.75586 4.57661C4.75586 4.35564 4.84362 4.14371 4.99985 3.98744L8.23235 0.754107C8.70221 0.286657 9.33807 0.0243188 10.0009 0.0244752C10.6636 0.0246316 11.2994 0.28727 11.769 0.75494Z" fill="white"/>
</g>
<defs>
<clipPath id="clip0_226_976">
<rect width="20" height="20" fill="white"/>
</clipPath>
</defs>
</svg>
