<svg width="24" height="24" viewBox="0 0 24 24" fill="none" xmlns="http://www.w3.org/2000/svg">
<g clip-path="url(#clip0_1237_2359)">
<path d="M18.4 7.37599C18.2194 7.32416 18.0545 7.22806 17.9204 7.09639C17.7863 6.96472 17.6872 6.80166 17.632 6.62199C17.3254 5.58447 16.8114 4.61993 16.1213 3.78671C15.4313 2.95349 14.5793 2.2689 13.6171 1.77434C12.6548 1.27979 11.6023 0.985551 10.5231 0.90942C9.44387 0.833288 8.36043 0.976847 7.33829 1.33141C6.31615 1.68598 5.37655 2.24419 4.57632 2.97228C3.77608 3.70036 3.13184 4.5832 2.68256 5.56739C2.23328 6.55159 1.98829 7.61668 1.96242 8.69826C1.93654 9.77984 2.13032 10.8554 2.53202 11.86C2.62505 12.0718 2.64507 12.3085 2.58896 12.533C2.53285 12.7574 2.40378 12.9569 2.22202 13.1C1.42557 13.6909 0.803692 14.4861 0.422218 15.4015C0.0407445 16.3169 -0.0861302 17.3184 0.055024 18.3C0.275915 19.627 0.965185 20.8309 1.99777 21.6933C3.03036 22.5556 4.33786 23.0192 5.68302 23H11C11.2652 23 11.5196 22.8946 11.7071 22.7071C11.8947 22.5196 12 22.2652 12 22C12 21.7348 11.8947 21.4804 11.7071 21.2929C11.5196 21.1053 11.2652 21 11 21H5.68302C4.81919 21.021 3.9764 20.7319 3.30737 20.185C2.63833 19.6381 2.18731 18.8697 2.03602 18.019C1.93929 17.3928 2.01647 16.7521 2.25913 16.1667C2.50179 15.5814 2.9006 15.074 3.41202 14.7C3.94772 14.2993 4.33535 13.7323 4.51415 13.0877C4.69294 12.4431 4.65281 11.7573 4.40002 11.138C3.89835 9.81271 3.87219 8.3544 4.32602 7.01199C4.68975 5.96061 5.3404 5.03197 6.20439 4.33109C7.06838 3.63022 8.11123 3.18507 9.21502 3.04599C9.47118 3.01489 9.72899 2.99953 9.98702 2.99999C11.2803 2.99573 12.5402 3.41053 13.5781 4.18228C14.6159 4.95402 15.3758 6.04119 15.744 7.28099C15.8878 7.75336 16.1467 8.18256 16.4976 8.52994C16.8485 8.87733 17.2802 9.13199 17.754 9.27099C18.9138 9.61384 19.9412 10.3028 20.6985 11.2457C21.4559 12.1885 21.9072 13.3403 21.9919 14.5467C22.0767 15.7531 21.7908 16.9566 21.1726 17.9961C20.5545 19.0356 19.6335 19.8614 18.533 20.363C18.3703 20.4465 18.2342 20.5739 18.1403 20.7309C18.0465 20.8879 17.9985 21.0681 18.002 21.251C18.0002 21.4165 18.0399 21.5797 18.1175 21.7259C18.1951 21.872 18.3081 21.9964 18.4462 22.0875C18.5843 22.1787 18.7431 22.2337 18.908 22.2476C19.0729 22.2615 19.2386 22.2338 19.39 22.167C23.525 20.179 25.771 14.951 22.27 9.90099C21.3063 8.64202 19.9405 7.75095 18.4 7.37599Z" fill="#3B3748"/>
<path d="M18.709 15.291L15.709 12.291C15.5214 12.1035 15.2671 11.9982 15.002 11.9982C14.7368 11.9982 14.4825 12.1035 14.295 12.291L11.295 15.291C11.1073 15.4785 11.0019 15.7329 11.0018 15.9981C11.0017 16.2634 11.107 16.5178 11.2945 16.7055C11.482 16.8931 11.7363 16.9986 12.0016 16.9987C12.2669 16.9988 12.5213 16.8935 12.709 16.706L14 15.413V23C14 23.2652 14.1053 23.5196 14.2929 23.7071C14.4804 23.8946 14.7348 24 15 24C15.2652 24 15.5195 23.8946 15.7071 23.7071C15.8946 23.5196 16 23.2652 16 23V15.413L17.3 16.706C17.3929 16.7988 17.5032 16.8725 17.6245 16.9227C17.7459 16.9729 17.876 16.9987 18.0073 16.9987C18.1387 16.9986 18.2687 16.9727 18.3901 16.9224C18.5114 16.8721 18.6216 16.7984 18.7145 16.7055C18.8073 16.6126 18.881 16.5023 18.9312 16.3809C18.9814 16.2596 19.0072 16.1295 19.0072 15.9981C19.0071 15.8668 18.9812 15.7367 18.9309 15.6154C18.8806 15.4941 18.8069 15.3838 18.714 15.291H18.709Z" fill="#3B3748"/>
</g>
<defs>
<clipPath id="clip0_1237_2359">
<rect width="24" height="24" fill="white"/>
</clipPath>
</defs>
</svg>
