<svg width="20" height="20" viewBox="0 0 20 20" fill="none" xmlns="http://www.w3.org/2000/svg">
<g id="icon" clip-path="url(#clip0_226_743)">
<path id="Vector" fill-rule="evenodd" clip-rule="evenodd" d="M17.9733 2.04718L17.9594 2.03324C17.7977 1.86847 17.5926 1.75276 17.3677 1.69956C17.1429 1.64636 16.9075 1.65788 16.689 1.73276L16.677 1.73681L2.51628 6.46867C2.27345 6.54812 2.06137 6.70091 1.90928 6.90588C1.7572 7.11084 1.67256 7.35786 1.66696 7.61285C1.66137 7.86784 1.73509 8.11833 1.87802 8.32974C2.02097 8.54117 2.22611 8.70312 2.46521 8.79315L2.47209 8.79574L7.71336 10.7955C8.04647 10.9228 8.34981 11.1174 8.60444 11.3672C8.85908 11.6169 9.05955 11.9164 9.19332 12.2471C9.19755 12.2576 9.20168 12.2681 9.2057 12.2786L11.2058 17.527L11.2127 17.5455C11.298 17.7775 11.4528 17.9777 11.6562 18.1187C11.8596 18.2597 12.1016 18.3347 12.3492 18.3333L12.3586 18.3333L12.4101 18.3333C12.6593 18.3263 12.9003 18.2428 13.1004 18.0941C13.3037 17.9431 13.4545 17.7323 13.5317 17.4914L13.5379 17.4727L18.2695 3.30307C18.3422 3.08699 18.3531 2.85489 18.3007 2.63298C18.2484 2.41107 18.135 2.20815 17.9733 2.04718ZM12.4286 20H12.3586C11.7683 20.0033 11.1914 19.8246 10.7064 19.4883C10.2215 19.152 9.852 18.6744 9.64841 18.1205L7.64829 12.8721C7.6004 12.7538 7.52862 12.6465 7.43742 12.5571C7.34623 12.4676 7.23759 12.3979 7.11826 12.3523L1.87796 10.3529C1.31598 10.1413 0.833568 9.76059 0.497308 9.26323C0.161048 8.76587 -0.0124729 8.17643 0.00069794 7.57628C0.0138688 6.97613 0.213082 6.39487 0.570838 5.91273C0.928594 5.43059 1.42725 5.07135 1.99797 4.88461L16.1488 0.156065C16.6649 -0.0207592 17.2205 -0.0479408 17.7514 0.0776637C18.2824 0.203268 18.7669 0.476528 19.149 0.865847C19.5311 1.24618 19.7992 1.72581 19.9229 2.25051C20.0466 2.7752 20.021 3.32403 19.849 3.83493L15.1187 18.0006C14.9351 18.5728 14.577 19.0733 14.0946 19.4318C13.6122 19.7904 13.0296 19.989 12.4286 20Z" fill="#3B3748"/>
</g>
<defs>
<clipPath id="clip0_226_743">
<rect width="20" height="20" fill="white"/>
</clipPath>
</defs>
</svg>
