<svg width="20" height="20" viewBox="0 0 20 20" fill="none" xmlns="http://www.w3.org/2000/svg">
<g id="icon" clip-path="url(#clip0_477_1215)">
<g id="Vector">
<path fill-rule="evenodd" clip-rule="evenodd" d="M9.99967 2.49992C5.85754 2.49992 2.49967 5.85778 2.49967 9.99992C2.49967 14.1421 5.85754 17.4999 9.99967 17.4999C14.1418 17.4999 17.4997 14.1421 17.4997 9.99992C17.4997 5.85778 14.1418 2.49992 9.99967 2.49992ZM0.833008 9.99992C0.833008 4.93731 4.93706 0.833252 9.99967 0.833252C15.0623 0.833252 19.1663 4.93731 19.1663 9.99992C19.1663 15.0625 15.0623 19.1666 9.99967 19.1666C4.93706 19.1666 0.833008 15.0625 0.833008 9.99992Z" fill="#3B3748"/>
<path fill-rule="evenodd" clip-rule="evenodd" d="M9.9997 8.33328C9.07923 8.33328 8.33303 9.07947 8.33303 9.99994C8.33303 10.9204 9.07923 11.6666 9.9997 11.6666C10.9202 11.6666 11.6664 10.9204 11.6664 9.99994C11.6664 9.07947 10.9202 8.33328 9.9997 8.33328ZM6.66637 9.99994C6.66637 8.159 8.15875 6.66661 9.9997 6.66661C11.8406 6.66661 13.333 8.159 13.333 9.99994C13.333 11.8409 11.8406 13.3333 9.9997 13.3333C8.15875 13.3333 6.66637 11.8409 6.66637 9.99994Z" fill="#3B3748"/>
</g>
</g>
<defs>
<clipPath id="clip0_477_1215">
<rect width="20" height="20" fill="white"/>
</clipPath>
</defs>
</svg>
